# xmcd
#
# Track frame offsets: 
#        150
#        19065
#        32032
#        56450
#        82752
#        103002
#        123205
#        146592
#        168145
#        185950
#        203955
#        221920
#        237085
#        249042
#        269180
#        288642
#        308325
#
# Disc length: 4359 seconds
#
# Revision: 1
# Processed by: cddbd v1.5.2PL0 Copyright (c) Steve Scherf et al.
# Submitted via: ExactAudioCopy v0.99pb3
#
DISCID=ef110511
DTITLE=Various Artist - Summer Slows II
DYEAR=1993
DGENRE=Slows
TTITLE0=Take My Breath Away-Berlin
TTITLE1=When a Man Loves a Woman-Percy Sledge
TTITLE2=Don't You Love Me Anymore-Joe Cocker
TTITLE3=Kiss Of Life-Sade
TTITLE4=When You Cry-Paulo Gonzo
TTITLE5=Total Eclipse Of The Heart-Bonnie Tyler
TTITLE6=You Will Remember-Harry Connick JR
TTITLE7=Killing Me Sotly With This Song-Roberta Flack
TTITLE8=Bright Eyes-Art Garfunkel
TTITLE9=Time After Time-Cyndi Lauper
TTITLE10=Sexual Healing-Marvin Gay
TTITLE11=Keep On Loving You-Reo Speedwagon
TTITLE12=Together Again-Ray Charles
TTITLE13=You-Ten Sharp
TTITLE14=When You Smile-Bad English
TTITLE15=Soul Inspiration-Simon Climie
TTITLE16=Every Time It Rains-Nazareth
EXTD=
EXTT0=
EXTT1=
EXTT2=
EXTT3=
EXTT4=
EXTT5=
EXTT6=
EXTT7=
EXTT8=
EXTT9=
EXTT10=
EXTT11=
EXTT12=
EXTT13=
EXTT14=
EXTT15=
EXTT16=
PLAYORDER=
